<svg xmlns="http://www.w3.org/2000/svg" width="370" height="103" viewBox="0 0 370 103" fill="none"><g clip-path="url(#clip0_1_2)"><path d="M32.4195 82.8081C16.6195 76.4081 3.31951 65.3081 0.719509 53.2081C-2.48049 41.2081 5.21951 28.0081 19.3195 18.1081C48.3195 -1.89193 80.9195 -6.49193 100.02 10.2081C120.02 26.7081 107.32 58.3081 93.2195 77.2081C86.0195 86.7081 80.3195 90.4081 70.8195 91.1081C61.5195 91.7081 48.5195 89.3081 32.4195 82.8081Z" fill="#DE005C"></path><path d="M32.4195 82.8081C16.6195 76.4081 3.31951 65.3081 0.719509 53.2081C-2.48049 41.2081 5.21951 28.0081 19.3195 18.1081C48.3195 -1.89193 80.9195 -6.49193 100.02 10.2081C120.02 26.7081 107.32 58.3081 93.2195 77.2081C86.0195 86.7081 80.3195 90.4081 70.8195 91.1081C61.5195 91.7081 48.5195 89.3081 32.4195 82.8081Z" fill="#DE005C"></path><path d="M166.42 65.4081H160.619V59.5081C157.319 63.9081 152.02 66.4081 145.72 66.4081C135.82 66.4081 127.02 58.6081 127.02 46.8081C127.02 35.0081 135.72 27.2081 145.72 27.2081C151.92 27.2081 157.219 29.7081 160.619 34.1081V28.1081H166.42V65.4081ZM160.72 46.8081C160.72 37.9081 153.82 32.2081 146.72 32.2081C139.02 32.2081 132.72 37.8081 132.72 46.8081C132.72 55.7081 138.92 61.3081 146.72 61.3081C153.82 61.2081 160.72 55.6081 160.72 46.8081Z" fill="black"></path><path d="M185.52 78.3081H179.119L185.219 64.9081L168.419 28.0081H174.919L188.219 57.9081L201.919 28.0081H208.32L185.52 78.3081Z" fill="black"></path><path d="M249.62 46.8081C249.62 58.6081 240.92 66.4081 230.92 66.4081C224.72 66.4081 219.42 63.9081 216.02 59.5081V78.3081H210.22V28.0081H216.02V34.0081C219.32 29.6081 224.62 27.1081 230.92 27.1081C240.92 27.1081 249.62 34.9081 249.62 46.8081ZM244.02 46.8081C244.02 37.9081 237.819 32.2081 230.02 32.2081C222.92 32.2081 216.02 37.8081 216.02 46.8081C216.02 55.7081 222.92 61.3081 230.02 61.3081C237.819 61.2081 244.02 55.6081 244.02 46.8081Z" fill="black"></path><path d="M288.42 43.0081V65.4081H282.62V44.1081C282.62 37.1081 278.42 32.4081 272.22 32.4081C264.42 32.4081 259.22 37.7081 259.22 47.4081V65.4081H253.42V10.8081H259.22V34.2081C262.22 29.7081 267.02 27.1081 273.32 27.1081C282.42 27.1081 288.42 33.6081 288.42 43.0081Z" fill="black"></path><path d="M329.12 47.9081H297.02C297.52 56.3081 303.92 61.3081 310.32 61.3081C315.62 61.3081 320.42 59.3081 323.02 53.3081L328.22 54.5081C325.22 62.3081 318.72 66.4081 310.32 66.4081C300.42 66.4081 291.32 58.7081 291.32 46.8081C291.32 34.8081 300.32 27.1081 310.62 27.1081C320.72 27.1081 328.619 34.6081 329.02 45.8081V47.9081H329.12ZM297.22 43.6081H323.22C322.12 36.2081 316.92 32.2081 310.72 32.2081C304.72 32.2081 298.42 36.2081 297.22 43.6081Z" fill="black"></path><path d="M367.82 43.0081V65.4081H362.02V44.1081C362.02 37.1081 357.82 32.4081 351.62 32.4081C343.82 32.4081 338.62 37.7081 338.62 47.4081V65.4081H332.82V28.0081H338.62V34.2081C341.62 29.7081 346.42 27.1081 352.72 27.1081C361.82 27.1081 367.82 33.6081 367.82 43.0081Z" fill="black"></path><path d="M86.6195 73.9081H68.7195V69.4081C64.3195 73.3081 58.5195 75.6081 51.2195 75.6081C36.3195 75.6081 23.8195 63.6081 23.8195 45.8081C23.8195 28.1081 36.3195 16.0081 51.2195 16.0081C58.5195 16.0081 64.3195 18.2081 68.7195 22.2081V17.7081H86.6195V73.9081ZM68.7195 45.8081C68.7195 37.2081 62.2195 31.2081 54.9195 31.2081C47.1195 31.2081 41.3195 37.1081 41.3195 45.8081C41.3195 54.5081 47.0195 60.4081 54.9195 60.4081C62.2195 60.3081 68.7195 54.5081 68.7195 45.8081Z" fill="white"></path><path d="M231.015 82.7021V89.8081C231.015 90.3947 231.14 90.8127 231.389 91.0621C231.638 91.2967 232.071 91.4141 232.687 91.4141H234.161V93.1081H232.357C231.242 93.1081 230.406 92.8514 229.849 92.3381C229.292 91.8247 229.013 90.9814 229.013 89.8081V82.7021H227.451V81.0521H229.013V78.0161H231.015V81.0521H234.161V82.7021H231.015ZM247.587 86.6181C247.587 86.9994 247.565 87.4027 247.521 87.8281H237.885C237.958 89.0161 238.361 89.9474 239.095 90.6221C239.843 91.2821 240.745 91.6121 241.801 91.6121C242.666 91.6121 243.385 91.4141 243.957 91.0181C244.543 90.6074 244.954 90.0647 245.189 89.3901H247.345C247.022 90.5487 246.377 91.4947 245.409 92.2281C244.441 92.9467 243.238 93.3061 241.801 93.3061C240.657 93.3061 239.63 93.0494 238.721 92.5361C237.826 92.0227 237.122 91.2967 236.609 90.3581C236.095 89.4047 235.839 88.3047 235.839 87.0581C235.839 85.8114 236.088 84.7187 236.587 83.7801C237.085 82.8414 237.782 82.1227 238.677 81.6241C239.586 81.1107 240.627 80.8541 241.801 80.8541C242.945 80.8541 243.957 81.1034 244.837 81.6021C245.717 82.1007 246.391 82.7901 246.861 83.6701C247.345 84.5354 247.587 85.5181 247.587 86.6181ZM245.519 86.2001C245.519 85.4374 245.35 84.7847 245.013 84.2421C244.675 83.6847 244.213 83.2667 243.627 82.9881C243.055 82.6947 242.417 82.5481 241.713 82.5481C240.701 82.5481 239.835 82.8707 239.117 83.5161C238.413 84.1614 238.009 85.0561 237.907 86.2001H245.519ZM249.481 87.0581C249.481 85.8114 249.73 84.7261 250.229 83.8021C250.728 82.8634 251.417 82.1374 252.297 81.6241C253.192 81.1107 254.211 80.8541 255.355 80.8541C256.836 80.8541 258.054 81.2134 259.007 81.9321C259.975 82.6507 260.613 83.6481 260.921 84.9241H258.765C258.56 84.1907 258.156 83.6114 257.555 83.1861C256.968 82.7607 256.235 82.5481 255.355 82.5481C254.211 82.5481 253.287 82.9441 252.583 83.7361C251.879 84.5134 251.527 85.6207 251.527 87.0581C251.527 88.5101 251.879 89.6321 252.583 90.4241C253.287 91.2161 254.211 91.6121 255.355 91.6121C256.235 91.6121 256.968 91.4067 257.555 90.9961C258.142 90.5854 258.545 89.9987 258.765 89.2361H260.921C260.598 90.4681 259.953 91.4581 258.985 92.2061C258.017 92.9394 256.807 93.3061 255.355 93.3061C254.211 93.3061 253.192 93.0494 252.297 92.5361C251.417 92.0227 250.728 91.2967 250.229 90.3581C249.73 89.4194 249.481 88.3194 249.481 87.0581ZM269.576 80.8321C270.486 80.8321 271.307 81.0301 272.04 81.4261C272.774 81.8074 273.346 82.3867 273.756 83.1641C274.182 83.9414 274.394 84.8874 274.394 86.0021V93.1081H272.414V86.2881C272.414 85.0854 272.114 84.1687 271.512 83.5381C270.911 82.8927 270.09 82.5701 269.048 82.5701C267.992 82.5701 267.149 82.9001 266.518 83.5601C265.902 84.2201 265.594 85.1807 265.594 86.4421V93.1081H263.592V76.8281H265.594V82.7681C265.99 82.1521 266.533 81.6754 267.222 81.3381C267.926 81.0007 268.711 80.8321 269.576 80.8321ZM283.539 80.8321C285.005 80.8321 286.193 81.2794 287.103 82.1741C288.012 83.0541 288.467 84.3301 288.467 86.0021V93.1081H286.487V86.2881C286.487 85.0854 286.186 84.1687 285.585 83.5381C284.983 82.8927 284.162 82.5701 283.121 82.5701C282.065 82.5701 281.221 82.9001 280.591 83.5601C279.975 84.2201 279.667 85.1807 279.667 86.4421V93.1081H277.665V81.0521H279.667V82.7681C280.063 82.1521 280.598 81.6754 281.273 81.3381C281.962 81.0007 282.717 80.8321 283.539 80.8321ZM296.995 93.3061C295.866 93.3061 294.839 93.0494 293.915 92.5361C293.006 92.0227 292.287 91.2967 291.759 90.3581C291.246 89.4047 290.989 88.3047 290.989 87.0581C290.989 85.8261 291.253 84.7407 291.781 83.8021C292.324 82.8487 293.057 82.1227 293.981 81.6241C294.905 81.1107 295.939 80.8541 297.083 80.8541C298.227 80.8541 299.261 81.1107 300.185 81.6241C301.109 82.1227 301.835 82.8414 302.363 83.7801C302.906 84.7187 303.177 85.8114 303.177 87.0581C303.177 88.3047 302.898 89.4047 302.341 90.3581C301.798 91.2967 301.058 92.0227 300.119 92.5361C299.18 93.0494 298.139 93.3061 296.995 93.3061ZM296.995 91.5461C297.714 91.5461 298.388 91.3774 299.019 91.0401C299.65 90.7027 300.156 90.1967 300.537 89.5221C300.933 88.8474 301.131 88.0261 301.131 87.0581C301.131 86.0901 300.94 85.2687 300.559 84.5941C300.178 83.9194 299.679 83.4207 299.063 83.0981C298.447 82.7607 297.78 82.5921 297.061 82.5921C296.328 82.5921 295.653 82.7607 295.037 83.0981C294.436 83.4207 293.952 83.9194 293.585 84.5941C293.218 85.2687 293.035 86.0901 293.035 87.0581C293.035 88.0407 293.211 88.8694 293.563 89.5441C293.93 90.2187 294.414 90.7247 295.015 91.0621C295.616 91.3847 296.276 91.5461 296.995 91.5461ZM307.811 76.8281V93.1081H305.809V76.8281H307.811ZM316.481 93.3061C315.352 93.3061 314.325 93.0494 313.401 92.5361C312.492 92.0227 311.773 91.2967 311.245 90.3581C310.732 89.4047 310.475 88.3047 310.475 87.0581C310.475 85.8261 310.739 84.7407 311.267 83.8021C311.81 82.8487 312.543 82.1227 313.467 81.6241C314.391 81.1107 315.425 80.8541 316.569 80.8541C317.713 80.8541 318.747 81.1107 319.671 81.6241C320.595 82.1227 321.321 82.8414 321.849 83.7801C322.392 84.7187 322.663 85.8114 322.663 87.0581C322.663 88.3047 322.385 89.4047 321.827 90.3581C321.285 91.2967 320.544 92.0227 319.605 92.5361C318.667 93.0494 317.625 93.3061 316.481 93.3061ZM316.481 91.5461C317.2 91.5461 317.875 91.3774 318.505 91.0401C319.136 90.7027 319.642 90.1967 320.023 89.5221C320.419 88.8474 320.617 88.0261 320.617 87.0581C320.617 86.0901 320.427 85.2687 320.045 84.5941C319.664 83.9194 319.165 83.4207 318.549 83.0981C317.933 82.7607 317.266 82.5921 316.547 82.5921C315.814 82.5921 315.139 82.7607 314.523 83.0981C313.922 83.4207 313.438 83.9194 313.071 84.5941C312.705 85.2687 312.521 86.0901 312.521 87.0581C312.521 88.0407 312.697 88.8694 313.049 89.5441C313.416 90.2187 313.9 90.7247 314.501 91.0621C315.103 91.3847 315.763 91.5461 316.481 91.5461ZM330.268 80.8541C331.309 80.8541 332.218 81.0814 332.996 81.5361C333.788 81.9907 334.374 82.5627 334.756 83.2521V81.0521H336.78V93.3721C336.78 94.4721 336.545 95.4474 336.076 96.2981C335.606 97.1634 334.932 97.8381 334.052 98.3221C333.186 98.8061 332.174 99.0481 331.016 99.0481C329.432 99.0481 328.112 98.6741 327.056 97.9261C326 97.1781 325.376 96.1587 325.186 94.8681H327.166C327.386 95.6014 327.84 96.1881 328.53 96.6281C329.219 97.0827 330.048 97.3101 331.016 97.3101C332.116 97.3101 333.01 96.9654 333.7 96.2761C334.404 95.5867 334.756 94.6187 334.756 93.3721V90.8421C334.36 91.5461 333.773 92.1327 332.996 92.6021C332.218 93.0714 331.309 93.3061 330.268 93.3061C329.197 93.3061 328.222 93.0421 327.342 92.5141C326.476 91.9861 325.794 91.2454 325.296 90.2921C324.797 89.3387 324.548 88.2534 324.548 87.0361C324.548 85.8041 324.797 84.7261 325.296 83.8021C325.794 82.8634 326.476 82.1374 327.342 81.6241C328.222 81.1107 329.197 80.8541 330.268 80.8541ZM334.756 87.0581C334.756 86.1487 334.572 85.3567 334.206 84.6821C333.839 84.0074 333.34 83.4941 332.71 83.1421C332.094 82.7754 331.412 82.5921 330.664 82.5921C329.916 82.5921 329.234 82.7681 328.618 83.1201C328.002 83.4721 327.51 83.9854 327.144 84.6601C326.777 85.3347 326.594 86.1267 326.594 87.0361C326.594 87.9601 326.777 88.7667 327.144 89.4561C327.51 90.1307 328.002 90.6514 328.618 91.0181C329.234 91.3701 329.916 91.5461 330.664 91.5461C331.412 91.5461 332.094 91.3701 332.71 91.0181C333.34 90.6514 333.839 90.1307 334.206 89.4561C334.572 88.7667 334.756 87.9674 334.756 87.0581ZM341.197 79.0941C340.815 79.0941 340.493 78.9621 340.229 78.6981C339.965 78.4341 339.833 78.1114 339.833 77.7301C339.833 77.3487 339.965 77.0261 340.229 76.7621C340.493 76.4981 340.815 76.3661 341.197 76.3661C341.563 76.3661 341.871 76.4981 342.121 76.7621C342.385 77.0261 342.517 77.3487 342.517 77.7301C342.517 78.1114 342.385 78.4341 342.121 78.6981C341.871 78.9621 341.563 79.0941 341.197 79.0941ZM342.165 81.0521V93.1081H340.163V81.0521H342.165ZM356.577 86.6181C356.577 86.9994 356.555 87.4027 356.511 87.8281H346.875C346.948 89.0161 347.351 89.9474 348.085 90.6221C348.833 91.2821 349.735 91.6121 350.791 91.6121C351.656 91.6121 352.375 91.4141 352.947 91.0181C353.533 90.6074 353.944 90.0647 354.179 89.3901H356.335C356.012 90.5487 355.367 91.4947 354.399 92.2281C353.431 92.9467 352.228 93.3061 350.791 93.3061C349.647 93.3061 348.62 93.0494 347.711 92.5361C346.816 92.0227 346.112 91.2967 345.599 90.3581C345.085 89.4047 344.829 88.3047 344.829 87.0581C344.829 85.8114 345.078 84.7187 345.577 83.7801C346.075 82.8414 346.772 82.1227 347.667 81.6241C348.576 81.1107 349.617 80.8541 350.791 80.8541C351.935 80.8541 352.947 81.1034 353.827 81.6021C354.707 82.1007 355.381 82.7901 355.851 83.6701C356.335 84.5354 356.577 85.5181 356.577 86.6181ZM354.509 86.2001C354.509 85.4374 354.34 84.7847 354.003 84.2421C353.665 83.6847 353.203 83.2667 352.617 82.9881C352.045 82.6947 351.407 82.5481 350.703 82.5481C349.691 82.5481 348.825 82.8707 348.107 83.5161C347.403 84.1614 346.999 85.0561 346.897 86.2001H354.509ZM363.487 93.3061C362.563 93.3061 361.735 93.1521 361.001 92.8441C360.268 92.5214 359.689 92.0814 359.263 91.5241C358.838 90.9521 358.603 90.2994 358.559 89.5661H360.627C360.686 90.1674 360.965 90.6587 361.463 91.0401C361.977 91.4214 362.644 91.6121 363.465 91.6121C364.228 91.6121 364.829 91.4434 365.269 91.1061C365.709 90.7687 365.929 90.3434 365.929 89.8301C365.929 89.3021 365.695 88.9134 365.225 88.6641C364.756 88.4001 364.03 88.1434 363.047 87.8941C362.153 87.6594 361.419 87.4247 360.847 87.1901C360.29 86.9407 359.806 86.5814 359.395 86.1121C358.999 85.6281 358.801 84.9974 358.801 84.2201C358.801 83.6041 358.985 83.0394 359.351 82.5261C359.718 82.0127 360.239 81.6094 360.913 81.3161C361.588 81.0081 362.358 80.8541 363.223 80.8541C364.558 80.8541 365.636 81.1914 366.457 81.8661C367.279 82.5407 367.719 83.4647 367.777 84.6381H365.775C365.731 84.0074 365.475 83.5014 365.005 83.1201C364.551 82.7387 363.935 82.5481 363.157 82.5481C362.439 82.5481 361.867 82.7021 361.441 83.0101C361.016 83.3181 360.803 83.7214 360.803 84.2201C360.803 84.6161 360.928 84.9461 361.177 85.2101C361.441 85.4594 361.764 85.6647 362.145 85.8261C362.541 85.9727 363.084 86.1414 363.773 86.3321C364.639 86.5667 365.343 86.8014 365.885 87.0361C366.428 87.2561 366.89 87.5934 367.271 88.0481C367.667 88.5027 367.873 89.0967 367.887 89.8301C367.887 90.4901 367.704 91.0841 367.337 91.6121C366.971 92.1401 366.45 92.5581 365.775 92.8661C365.115 93.1594 364.353 93.3061 363.487 93.3061Z" fill="#DE005C"></path></g><defs><clipPath id="clip0_1_2"><rect width="369.02" height="102.108" fill="white"></rect></clipPath></defs></svg>